<svg xmlns="http://www.w3.org/2000/svg" viewBox="0 0 800 520" font-family="Georgia, serif"><defs><pattern id="hw2-g1" width="20" height="20" patternUnits="userSpaceOnUse"><path d="M20 0H0V20" fill="none" stroke="#e8e4d8" stroke-opacity=".055"/></pattern><pattern id="hw2-g2" width="100" height="100" patternUnits="userSpaceOnUse"><path d="M100 0H0V100" fill="none" stroke="#e8e4d8" stroke-opacity=".11"/></pattern><pattern id="hw2-h" width="8" height="8" patternUnits="userSpaceOnUse" patternTransform="rotate(45)"><line x1="0" y1="0" x2="0" y2="8" stroke="#e8e4d8" stroke-opacity=".11" stroke-width="1.5"/></pattern></defs><rect width="800" height="520" fill="#0b0d10"/><rect width="800" height="520" fill="url(#hw2-g1)"/><rect width="800" height="520" fill="url(#hw2-g2)"/><path d="M20 8H8V20" fill="none" stroke="#e8e4d8" stroke-opacity=".4" stroke-width="1.5"/><path d="M780 8H792V20" fill="none" stroke="#e8e4d8" stroke-opacity=".4" stroke-width="1.5"/><path d="M20 512H8V500" fill="none" stroke="#e8e4d8" stroke-opacity=".4" stroke-width="1.5"/><path d="M780 512H792V500" fill="none" stroke="#e8e4d8" stroke-opacity=".4" stroke-width="1.5"/><rect x="40" y="40" width="340" height="240" fill="#14171b" stroke="#e8e4d8" stroke-width="6" stroke-linejoin="miter"/><text x="54" y="67" text-anchor="start"  fill="#f2f0e8" style="font-family:var(--ff-heading,'Playfair Display',Georgia,serif);font-weight:700;font-size:20px;letter-spacing:0.2px;">Ruang Kerja Edmund</text><rect x="420" y="40" width="340" height="240" fill="#14171b" stroke="#e8e4d8" stroke-width="6" stroke-linejoin="miter"/><text x="434" y="67" text-anchor="start"  fill="#f2f0e8" style="font-family:var(--ff-heading,'Playfair Display',Georgia,serif);font-weight:700;font-size:20px;letter-spacing:0.2px;">Kamar Vivian</text><rect x="40" y="300" width="720" height="60" fill="#14171b" stroke="#e8e4d8" stroke-width="6" stroke-linejoin="miter"/><text x="54" y="327" text-anchor="start"  fill="#d6d2c4" style="font-family:var(--ff-heading,'Playfair Display',Georgia,serif);font-weight:700;font-size:20px;letter-spacing:0.2px;">Koridor Timur</text><rect x="40" y="380" width="340" height="110" fill="#14171b" stroke="#e8e4d8" stroke-width="6" stroke-linejoin="miter"/><text x="54" y="407" text-anchor="start"  fill="#d6d2c4" style="font-family:var(--ff-heading,'Playfair Display',Georgia,serif);font-weight:700;font-size:20px;letter-spacing:0.2px;">Kamar Tamu</text><rect x="420" y="380" width="340" height="110" fill="#14171b" stroke="#e8e4d8" stroke-width="6" stroke-linejoin="miter"/><text x="434" y="407" text-anchor="start"  fill="#d6d2c4" style="font-family:var(--ff-heading,'Playfair Display',Georgia,serif);font-weight:700;font-size:20px;letter-spacing:0.2px;">Tangga dan Aula</text><rect x="290" y="36" width="70" height="8" fill="#14171b"/><path d="M290 37H360" stroke="#e8e4d8" stroke-width="1.4" stroke-opacity="0.9"/><path d="M290 40H360" stroke="#e8e4d8" stroke-width="1" stroke-opacity="0.55"/><path d="M290 43H360" stroke="#e8e4d8" stroke-width="1.4" stroke-opacity="0.9"/><path d="M290 35V45M360 35V45" stroke="#e8e4d8" stroke-width="2.5"/><rect x="36" y="120" width="8" height="50" fill="#14171b"/><path d="M37 120V170" stroke="#e8e4d8" stroke-width="1.4" stroke-opacity="0.9"/><path d="M40 120V170" stroke="#e8e4d8" stroke-width="1" stroke-opacity="0.55"/><path d="M43 120V170" stroke="#e8e4d8" stroke-width="1.4" stroke-opacity="0.9"/><path d="M35 120H45M35 170H45" stroke="#e8e4d8" stroke-width="2.5"/><rect x="470" y="36" width="70" height="8" fill="#14171b"/><path d="M470 37H540" stroke="#e8e4d8" stroke-width="1.4" stroke-opacity="0.9"/><path d="M470 40H540" stroke="#e8e4d8" stroke-width="1" stroke-opacity="0.55"/><path d="M470 43H540" stroke="#e8e4d8" stroke-width="1.4" stroke-opacity="0.9"/><path d="M470 35V45M540 35V45" stroke="#e8e4d8" stroke-width="2.5"/><rect x="620" y="36" width="70" height="8" fill="#14171b"/><path d="M620 37H690" stroke="#e8e4d8" stroke-width="1.4" stroke-opacity="0.9"/><path d="M620 40H690" stroke="#e8e4d8" stroke-width="1" stroke-opacity="0.55"/><path d="M620 43H690" stroke="#e8e4d8" stroke-width="1.4" stroke-opacity="0.9"/><path d="M620 35V45M690 35V45" stroke="#e8e4d8" stroke-width="2.5"/><rect x="756" y="110" width="8" height="70" fill="#14171b"/><path d="M757 110V180" stroke="#e8e4d8" stroke-width="1.4" stroke-opacity="0.9"/><path d="M760 110V180" stroke="#e8e4d8" stroke-width="1" stroke-opacity="0.55"/><path d="M763 110V180" stroke="#e8e4d8" stroke-width="1.4" stroke-opacity="0.9"/><path d="M755 110H765M755 180H765" stroke="#e8e4d8" stroke-width="2.5"/><rect x="36" y="420" width="8" height="50" fill="#14171b"/><path d="M37 420V470" stroke="#e8e4d8" stroke-width="1.4" stroke-opacity="0.9"/><path d="M40 420V470" stroke="#e8e4d8" stroke-width="1" stroke-opacity="0.55"/><path d="M43 420V470" stroke="#e8e4d8" stroke-width="1.4" stroke-opacity="0.9"/><path d="M35 420H45M35 470H45" stroke="#e8e4d8" stroke-width="2.5"/><rect x="756" y="420" width="8" height="50" fill="#14171b"/><path d="M757 420V470" stroke="#e8e4d8" stroke-width="1.4" stroke-opacity="0.9"/><path d="M760 420V470" stroke="#e8e4d8" stroke-width="1" stroke-opacity="0.55"/><path d="M763 420V470" stroke="#e8e4d8" stroke-width="1.4" stroke-opacity="0.9"/><path d="M755 420H765M755 470H765" stroke="#e8e4d8" stroke-width="2.5"/><rect x="100" y="486" width="70" height="8" fill="#14171b"/><path d="M100 487H170" stroke="#e8e4d8" stroke-width="1.4" stroke-opacity="0.9"/><path d="M100 490H170" stroke="#e8e4d8" stroke-width="1" stroke-opacity="0.55"/><path d="M100 493H170" stroke="#e8e4d8" stroke-width="1.4" stroke-opacity="0.9"/><path d="M100 485V495M170 485V495" stroke="#e8e4d8" stroke-width="2.5"/><rect x="500" y="486" width="70" height="8" fill="#14171b"/><path d="M500 487H570" stroke="#e8e4d8" stroke-width="1.4" stroke-opacity="0.9"/><path d="M500 490H570" stroke="#e8e4d8" stroke-width="1" stroke-opacity="0.55"/><path d="M500 493H570" stroke="#e8e4d8" stroke-width="1.4" stroke-opacity="0.9"/><path d="M500 485V495M570 485V495" stroke="#e8e4d8" stroke-width="2.5"/><rect x="300" y="276" width="36" height="8" fill="#14171b"/><path d="M336 244A36 36 0 0 0 300 280" fill="none" stroke="#e8e4d8" stroke-opacity=".55" stroke-width="1.2" stroke-dasharray="3 2.5"/><path d="M336 280L336 244" stroke="#e8e4d8" stroke-width="2.2" stroke-linecap="round"/><path d="M336 275V285M300 275V285" stroke="#e8e4d8" stroke-width="2.5"/><rect x="300" y="296" width="36" height="8" fill="#14171b"/><path d="M336 336A36 36 0 0 1 300 300" fill="none" stroke="#e8e4d8" stroke-opacity=".55" stroke-width="1.2" stroke-dasharray="3 2.5"/><path d="M336 300L336 336" stroke="#e8e4d8" stroke-width="2.2" stroke-linecap="round"/><path d="M336 295V305M300 295V305" stroke="#e8e4d8" stroke-width="2.5"/><rect x="620" y="276" width="36" height="8" fill="#14171b"/><path d="M656 244A36 36 0 0 0 620 280" fill="none" stroke="#e8e4d8" stroke-opacity=".55" stroke-width="1.2" stroke-dasharray="3 2.5"/><path d="M656 280L656 244" stroke="#e8e4d8" stroke-width="2.2" stroke-linecap="round"/><path d="M656 275V285M620 275V285" stroke="#e8e4d8" stroke-width="2.5"/><rect x="620" y="296" width="36" height="8" fill="#14171b"/><path d="M656 336A36 36 0 0 1 620 300" fill="none" stroke="#e8e4d8" stroke-opacity=".55" stroke-width="1.2" stroke-dasharray="3 2.5"/><path d="M656 300L656 336" stroke="#e8e4d8" stroke-width="2.2" stroke-linecap="round"/><path d="M656 295V305M620 295V305" stroke="#e8e4d8" stroke-width="2.5"/><rect x="250" y="356" width="30" height="8" fill="#14171b"/><path d="M280 330A30 30 0 0 0 250 360" fill="none" stroke="#e8e4d8" stroke-opacity=".55" stroke-width="1.2" stroke-dasharray="3 2.5"/><path d="M280 360L280 330" stroke="#e8e4d8" stroke-width="2.2" stroke-linecap="round"/><path d="M280 355V365M250 355V365" stroke="#e8e4d8" stroke-width="2.5"/><rect x="250" y="376" width="30" height="8" fill="#14171b"/><path d="M280 410A30 30 0 0 1 250 380" fill="none" stroke="#e8e4d8" stroke-opacity=".55" stroke-width="1.2" stroke-dasharray="3 2.5"/><path d="M280 380L280 410" stroke="#e8e4d8" stroke-width="2.2" stroke-linecap="round"/><path d="M280 375V385M250 375V385" stroke="#e8e4d8" stroke-width="2.5"/><rect x="700" y="356" width="36" height="8" fill="#14171b"/><path d="M736 324A36 36 0 0 0 700 360" fill="none" stroke="#e8e4d8" stroke-opacity=".55" stroke-width="1.2" stroke-dasharray="3 2.5"/><path d="M736 360L736 324" stroke="#e8e4d8" stroke-width="2.2" stroke-linecap="round"/><path d="M736 355V365M700 355V365" stroke="#e8e4d8" stroke-width="2.5"/><rect x="700" y="376" width="36" height="8" fill="#14171b"/><path d="M736 416A36 36 0 0 1 700 380" fill="none" stroke="#e8e4d8" stroke-opacity=".55" stroke-width="1.2" stroke-dasharray="3 2.5"/><path d="M736 380L736 416" stroke="#e8e4d8" stroke-width="2.2" stroke-linecap="round"/><path d="M736 375V385M700 375V385" stroke="#e8e4d8" stroke-width="2.5"/><rect x="140" y="118" width="150" height="58" rx="2" fill="#e8e4d8" fill-opacity=".07" stroke="#a9a596" stroke-width="1.6"/><rect x="262" y="123" width="23" height="48" stroke="#a9a596" stroke-width="1" stroke-opacity=".8" fill="none"/><path d="M262 147.0H285" stroke="#a9a596" stroke-width="1" stroke-opacity=".8" fill="none"/><text x="200" y="152" text-anchor="middle"  fill="#14171b" stroke="#14171b" stroke-width="4" stroke-linejoin="round" style="font-family:var(--ff-label,'Oswald','Arial Narrow',sans-serif);font-weight:500;font-size:14px;letter-spacing:0.3px;">meja kerja</text><text x="200" y="152" text-anchor="middle"  fill="#d6d2c4" style="font-family:var(--ff-label,'Oswald','Arial Narrow',sans-serif);font-weight:500;font-size:14px;letter-spacing:0.3px;">meja kerja</text><rect x="181" y="178" width="26" height="24" rx="5" fill="#e8e4d8" fill-opacity=".07" stroke="#a9a596" stroke-width="1.4"/><g fill="none" stroke="#f2f0e8" stroke-opacity=".8" stroke-width="1.4" stroke-dasharray="4 3"><circle cx="194" cy="182" r="6"/><ellipse cx="194" cy="194" rx="15" ry="7"/><path d="M180 192L172 178M208 192L216 178"/></g><text x="224" y="199" text-anchor="start"  fill="#14171b" stroke="#14171b" stroke-width="4" stroke-linejoin="round" style="font-family:var(--ff-label,'Oswald','Arial Narrow',sans-serif);font-weight:500;font-size:14px;letter-spacing:0.3px;">jasad</text><text x="224" y="199" text-anchor="start"  fill="#d6d2c4" style="font-family:var(--ff-label,'Oswald','Arial Narrow',sans-serif);font-weight:500;font-size:14px;letter-spacing:0.3px;">jasad</text><rect x="132" y="203" width="74" height="30" rx="2" fill="#e8e4d8" fill-opacity=".07" stroke="#a9a596" stroke-width="1.6"/><path d="M132 213H206" stroke="#a9a596" stroke-width="1" stroke-opacity=".8" fill="none"/><path d="M132 223H206" stroke="#a9a596" stroke-width="1" stroke-opacity=".8" fill="none"/><text x="169" y="223" text-anchor="middle"  fill="#14171b" stroke="#14171b" stroke-width="4" stroke-linejoin="round" style="font-family:var(--ff-label,'Oswald','Arial Narrow',sans-serif);font-weight:500;font-size:14px;letter-spacing:0.3px;">laci meja</text><text x="169" y="223" text-anchor="middle"  fill="#d6d2c4" style="font-family:var(--ff-label,'Oswald','Arial Narrow',sans-serif);font-weight:500;font-size:14px;letter-spacing:0.3px;">laci meja</text><rect x="300" y="92" width="56" height="42" rx="2" fill="#e8e4d8" fill-opacity=".07" stroke="#a9a596" stroke-width="1.6"/><rect x="304" y="96" width="48" height="34" stroke="#a9a596" stroke-width="1" stroke-opacity=".8" fill="none"/><text x="328" y="118" text-anchor="middle"  fill="#14171b" stroke="#14171b" stroke-width="4" stroke-linejoin="round" style="font-family:var(--ff-label,'Oswald','Arial Narrow',sans-serif);font-weight:500;font-size:14px;letter-spacing:0.3px;">brankas</text><text x="328" y="118" text-anchor="middle"  fill="#d6d2c4" style="font-family:var(--ff-label,'Oswald','Arial Narrow',sans-serif);font-weight:500;font-size:14px;letter-spacing:0.3px;">brankas</text><rect x="440" y="190" width="130" height="80" rx="2" fill="#e8e4d8" fill-opacity=".07" stroke="#a9a596" stroke-width="1.6"/><rect x="448" y="196" width="53" height="13" rx="3" stroke="#a9a596" stroke-width="1" stroke-opacity=".8" fill="none"/><rect x="509" y="196" width="53" height="13" rx="3" stroke="#a9a596" stroke-width="1" stroke-opacity=".8" fill="none"/><path d="M440 223.6H570" stroke="#a9a596" stroke-width="1" stroke-opacity=".8" fill="none"/><text x="505" y="252" text-anchor="middle"  fill="#14171b" stroke="#14171b" stroke-width="4" stroke-linejoin="round" style="font-family:var(--ff-label,'Oswald','Arial Narrow',sans-serif);font-weight:500;font-size:14px;letter-spacing:0.3px;">ranjang</text><text x="505" y="252" text-anchor="middle"  fill="#d6d2c4" style="font-family:var(--ff-label,'Oswald','Arial Narrow',sans-serif);font-weight:500;font-size:14px;letter-spacing:0.3px;">ranjang</text><rect x="585" y="148" width="120" height="50" rx="2" fill="#e8e4d8" fill-opacity=".07" stroke="#a9a596" stroke-width="1.6"/><rect x="610" y="158" width="28" height="20" rx="2" fill="none" stroke="#a9a596" stroke-width="1.2"/><text x="670" y="178" text-anchor="middle"  fill="#14171b" stroke="#14171b" stroke-width="4" stroke-linejoin="round" style="font-family:var(--ff-label,'Oswald','Arial Narrow',sans-serif);font-weight:500;font-size:14px;letter-spacing:0.3px;">meja rias</text><text x="670" y="178" text-anchor="middle"  fill="#d6d2c4" style="font-family:var(--ff-label,'Oswald','Arial Narrow',sans-serif);font-weight:500;font-size:14px;letter-spacing:0.3px;">meja rias</text><circle cx="520" cy="337" r="15" fill="#14171b" fill-opacity=".85" stroke="#e8e4d8" stroke-width="1.5"/><circle cx="520" cy="337" r="11" fill="none" stroke="#e8e4d8" stroke-opacity=".35"/><path d="M520 325L524.5 337L515.5 337Z" fill="#c1121f"/><path d="M520 349L524.5 337L515.5 337Z" fill="#e8e4d8" fill-opacity=".85"/><path d="M508 337H532" stroke="#e8e4d8" stroke-opacity=".4"/><text x="520" y="317" text-anchor="middle"  fill="#14171b" stroke="#14171b" stroke-width="4" stroke-linejoin="round" style="font-family:var(--ff-label,'Oswald','Arial Narrow',sans-serif);font-weight:500;font-size:14px;letter-spacing:1px;">U</text><text x="520" y="317" text-anchor="middle"  fill="#f2f0e8" style="font-family:var(--ff-label,'Oswald','Arial Narrow',sans-serif);font-weight:500;font-size:14px;letter-spacing:1px;">U</text><rect x="292" y="404" width="78" height="76" rx="2" fill="#e8e4d8" fill-opacity=".07" stroke="#a9a596" stroke-width="1.6"/><rect x="300" y="410" width="27" height="13" rx="3" stroke="#a9a596" stroke-width="1" stroke-opacity=".8" fill="none"/><rect x="335" y="410" width="27" height="13" rx="3" stroke="#a9a596" stroke-width="1" stroke-opacity=".8" fill="none"/><path d="M292 435.92H370" stroke="#a9a596" stroke-width="1" stroke-opacity=".8" fill="none"/><text x="331" y="464" text-anchor="middle"  fill="#14171b" stroke="#14171b" stroke-width="4" stroke-linejoin="round" style="font-family:var(--ff-label,'Oswald','Arial Narrow',sans-serif);font-weight:500;font-size:14px;letter-spacing:0.3px;">ranjang</text><text x="331" y="464" text-anchor="middle"  fill="#d6d2c4" style="font-family:var(--ff-label,'Oswald','Arial Narrow',sans-serif);font-weight:500;font-size:14px;letter-spacing:0.3px;">ranjang</text><path d="M630 430H710" stroke="#a9a596" stroke-width="1.3"/><path d="M630 438H710" stroke="#a9a596" stroke-width="1.3"/><path d="M630 446H710" stroke="#a9a596" stroke-width="1.3"/><path d="M630 454H710" stroke="#a9a596" stroke-width="1.3"/><path d="M630 462H710" stroke="#a9a596" stroke-width="1.3"/><path d="M630 470H710" stroke="#a9a596" stroke-width="1.3"/><path d="M630 478H710" stroke="#a9a596" stroke-width="1.3"/><rect x="630" y="424" width="80" height="58" fill="none" stroke="#a9a596" stroke-width="1.6"/><g fill="none" stroke="#e8e4d8" stroke-width="1.8" stroke-linecap="round"><circle cx="50" cy="504" r="5"/><path d="M54 508L59 513"/></g><text x="66" y="512" text-anchor="start"  fill="#d6d2c4" style="font-family:var(--ff-label,'Oswald','Arial Narrow',sans-serif);font-weight:500;font-size:14px;letter-spacing:0.6px;">= titik periksa</text><path d="M200 513V501" stroke="#e8e4d8" stroke-width="2" stroke-linecap="round"/><path d="M200 501A12 12 0 0 1 212 513" fill="none" stroke="#e8e4d8" stroke-opacity=".6" stroke-dasharray="3 2.5"/><text x="220" y="512" text-anchor="start"  fill="#d6d2c4" style="font-family:var(--ff-label,'Oswald','Arial Narrow',sans-serif);font-weight:500;font-size:14px;letter-spacing:0.6px;">pintu</text><path d="M296 503H318" stroke="#e8e4d8" stroke-width="1.3" stroke-opacity="0.9"/><path d="M296 507H318" stroke="#e8e4d8" stroke-width="1.3" stroke-opacity="0.6"/><path d="M296 511H318" stroke="#e8e4d8" stroke-width="1.3" stroke-opacity="0.9"/><text x="326" y="512" text-anchor="start"  fill="#d6d2c4" style="font-family:var(--ff-label,'Oswald','Arial Narrow',sans-serif);font-weight:500;font-size:14px;letter-spacing:0.6px;">jendela</text><text x="760" y="512" text-anchor="end"  fill="#d6d2c4" style="font-family:var(--ff-heading,'Playfair Display',Georgia,serif);font-weight:700;font-size:16px;letter-spacing:0.3px;">Mansion Hartwell: Lantai 2</text></svg>