<svg xmlns="http://www.w3.org/2000/svg" viewBox="0 0 200 200" font-family="Georgia,serif"><defs><filter id="g"><feTurbulence type="fractalNoise" baseFrequency=".9" numOctaves="2" seed="3"/><feColorMatrix type="saturate" values="0"/></filter><pattern id="h" width="8" height="8" patternUnits="userSpaceOnUse" patternTransform="rotate(45)"><line x1="0" y1="0" x2="0" y2="8" stroke="#222" stroke-width="2"/></pattern></defs><rect width="200" height="200" fill="#111"/><rect x="8" y="8" width="184" height="184" fill="none" stroke="#444" stroke-width="2"/><rect x="20" y="40" width="160" height="120" fill="#cfc8b4" stroke="#111"/><path d="M100 40 V160" stroke="#555" stroke-width="3"/><path d="M28 60H92 M108 60H172" stroke="#888"/><path d="M28 74H92 M108 74H172" stroke="#888"/><path d="M28 88H92 M108 88H172" stroke="#888"/><path d="M28 102H92 M108 102H172" stroke="#888"/><path d="M28 116H92 M108 116H172" stroke="#888"/><path d="M28 130H92 M108 130H172" stroke="#888"/><path d="M28 144H92 M108 144H172" stroke="#888"/><text x="108" y="86" font-size="9" fill="#111" text-anchor="start">2 Nov</text><text x="108" y="100" font-size="9" fill="#111" text-anchor="start">Tinktur dig.</text><rect x="106" y="104" width="68" height="14" fill="none" stroke="#a3262a" stroke-width="1.6"/><text x="110" y="115" font-size="8" fill="#111" text-anchor="start">E. Marsh RN-3317</text><text x="18" y="186" fill="#888" font-size="13">E32</text><rect width="200" height="200" filter="url(#g)" opacity=".13"/></svg>